<mxfile host="Electron" modified="2024-03-25T12:45:43.111Z" agent="Mozilla/5.0 (Windows NT 10.0; Win64; x64) AppleWebKit/537.36 (KHTML, like Gecko) draw.io/22.1.18 Chrome/120.0.6099.199 Electron/28.1.2 Safari/537.36" etag="CUHvt4JEbNYQibAjjLV4" version="22.1.18" type="device">
  <diagram name="Seite-1" id="ySocGNSunWV5qO7tuLqs">
    <mxGraphModel dx="3517" dy="606" grid="1" gridSize="10" guides="1" tooltips="1" connect="1" arrows="1" fold="1" page="1" pageScale="1" pageWidth="827" pageHeight="1169" math="0" shadow="0">
      <root>
        <mxCell id="0" />
        <mxCell id="1" parent="0" />
        <mxCell id="AmjPXuOLqERmoI-NP9R9-39" value="" style="edgeStyle=orthogonalEdgeStyle;rounded=0;orthogonalLoop=1;jettySize=auto;html=1;" parent="1" source="AmjPXuOLqERmoI-NP9R9-37" target="AmjPXuOLqERmoI-NP9R9-38" edge="1">
          <mxGeometry relative="1" as="geometry" />
        </mxCell>
        <mxCell id="AmjPXuOLqERmoI-NP9R9-37" value="use GetterFactory to create getter for given target" style="rounded=0;whiteSpace=wrap;html=1;" parent="1" vertex="1">
          <mxGeometry x="-2440" y="70" width="120" height="60" as="geometry" />
        </mxCell>
        <mxCell id="AmjPXuOLqERmoI-NP9R9-41" value="" style="edgeStyle=orthogonalEdgeStyle;rounded=0;orthogonalLoop=1;jettySize=auto;html=1;entryX=0.5;entryY=0;entryDx=0;entryDy=0;" parent="1" source="AmjPXuOLqERmoI-NP9R9-38" target="AmjPXuOLqERmoI-NP9R9-42" edge="1">
          <mxGeometry relative="1" as="geometry">
            <mxPoint x="-2155" y="184" as="targetPoint" />
          </mxGeometry>
        </mxCell>
        <mxCell id="AmjPXuOLqERmoI-NP9R9-38" value="load file from path given in env variable&lt;br&gt;LOGPREP_CREDENTIALS_FILE" style="rounded=0;whiteSpace=wrap;html=1;" parent="1" vertex="1">
          <mxGeometry x="-2250" y="70" width="190" height="60" as="geometry" />
        </mxCell>
        <mxCell id="AmjPXuOLqERmoI-NP9R9-45" value="" style="edgeStyle=orthogonalEdgeStyle;rounded=0;orthogonalLoop=1;jettySize=auto;html=1;" parent="1" target="AmjPXuOLqERmoI-NP9R9-44" edge="1">
          <mxGeometry relative="1" as="geometry">
            <mxPoint x="-2154.5" y="250.9999999999999" as="sourcePoint" />
          </mxGeometry>
        </mxCell>
        <mxCell id="AmjPXuOLqERmoI-NP9R9-42" value="expected credentials object/ authentication method is matched to given credentials in file" style="whiteSpace=wrap;html=1;rounded=0;" parent="1" vertex="1">
          <mxGeometry x="-2244" y="179" width="179" height="71" as="geometry" />
        </mxCell>
        <mxCell id="AmjPXuOLqERmoI-NP9R9-47" value="" style="edgeStyle=orthogonalEdgeStyle;rounded=0;orthogonalLoop=1;jettySize=auto;html=1;" parent="1" source="AmjPXuOLqERmoI-NP9R9-44" target="AmjPXuOLqERmoI-NP9R9-46" edge="1">
          <mxGeometry relative="1" as="geometry">
            <mxPoint x="-1901.9523809523812" y="236" as="targetPoint" />
          </mxGeometry>
        </mxCell>
        <mxCell id="AmjPXuOLqERmoI-NP9R9-44" value="if method is an oauth authentication method: post request is sent to token endpoint containing a payload depending on the auth method that has been chosen&amp;nbsp;" style="whiteSpace=wrap;html=1;rounded=0;" parent="1" vertex="1">
          <mxGeometry x="-2259.5" y="319" width="210" height="91" as="geometry" />
        </mxCell>
        <mxCell id="AmjPXuOLqERmoI-NP9R9-49" value="" style="edgeStyle=orthogonalEdgeStyle;rounded=0;orthogonalLoop=1;jettySize=auto;html=1;entryX=0.5;entryY=0;entryDx=0;entryDy=0;exitX=1;exitY=0.5;exitDx=0;exitDy=0;" parent="1" source="AmjPXuOLqERmoI-NP9R9-46" target="AmjPXuOLqERmoI-NP9R9-48" edge="1">
          <mxGeometry relative="1" as="geometry">
            <mxPoint x="-1905" y="205.9999999999999" as="sourcePoint" />
            <mxPoint x="-1834.9523809523812" y="356" as="targetPoint" />
          </mxGeometry>
        </mxCell>
        <mxCell id="AmjPXuOLqERmoI-NP9R9-46" value="token is retrieved and authorization header is set" style="whiteSpace=wrap;html=1;rounded=0;" parent="1" vertex="1">
          <mxGeometry x="-2021" y="189" width="120" height="60" as="geometry" />
        </mxCell>
        <mxCell id="AmjPXuOLqERmoI-NP9R9-51" value="" style="edgeStyle=orthogonalEdgeStyle;rounded=0;orthogonalLoop=1;jettySize=auto;html=1;exitX=1;exitY=0.5;exitDx=0;exitDy=0;" parent="1" source="AmjPXuOLqERmoI-NP9R9-48" target="AmjPXuOLqERmoI-NP9R9-50" edge="1">
          <mxGeometry relative="1" as="geometry">
            <mxPoint x="-1818" y="362" as="sourcePoint" />
            <mxPoint x="-1754" y="131" as="targetPoint" />
          </mxGeometry>
        </mxCell>
        <mxCell id="AmjPXuOLqERmoI-NP9R9-48" value="getter target is requested" style="whiteSpace=wrap;html=1;rounded=0;" parent="1" vertex="1">
          <mxGeometry x="-1895" y="334" width="113" height="56" as="geometry" />
        </mxCell>
        <mxCell id="AmjPXuOLqERmoI-NP9R9-50" value="if the authentication was successful the getter target is retrieved" style="whiteSpace=wrap;html=1;rounded=0;" parent="1" vertex="1">
          <mxGeometry x="-1799" y="60" width="120" height="70" as="geometry" />
        </mxCell>
      </root>
    </mxGraphModel>
  </diagram>
</mxfile>
